<?xml version="1.0" encoding="utf-8"?>
<!-- Uploaded to: SVG Repo, www.svgrepo.com, Generator: SVG Repo Mixer Tools -->
<svg width="800px" height="800px" viewBox="0 0 1024 1024" class="icon"  version="1.1" xmlns="http://www.w3.org/2000/svg"><path d="M906.3 657H934c6.8 0 12.4-5.6 12.4-12.4 0-6.8-5.6-12.4-12.4-12.4h-27.7c-6.8 0-12.4 5.6-12.4 12.4 0 6.8 5.6 12.4 12.4 12.4zM117.7 644.2H89.9c-6.8 0-12.4-5.6-12.4-12.4 0-6.8 5.6-12.4 12.4-12.4h27.7c6.8 0 12.4 5.6 12.4 12.4 0.1 6.8-5.5 12.4-12.3 12.4z" fill="#13283F" /><path d="M946.5 675.6c7.1 0 12.9-5.8 12.9-12.9v-37.1c0-7.1-5.8-12.9-12.9-12.9-7.1 0-12.9 5.8-12.9 12.9v37.1c0 7.1 5.8 12.9 12.9 12.9zM77.5 662.8c-7.1 0-12.9-5.8-12.9-12.9v-37.1c0-7.1 5.8-12.9 12.9-12.9 7.1 0 12.9 5.8 12.9 12.9v37.1c0 7.1-5.8 12.9-12.9 12.9z" fill="#183351" /><path d="M877.3 685.7h-732c-18.9 0-34.4-15.5-34.4-34.4V341.6c0-18.9 15.5-34.4 34.4-34.4h732.1c18.9 0 34.4 15.5 34.4 34.4v309.7c0 18.9-15.5 34.4-34.5 34.4z" fill="#248CBE" /><path d="M353.9 511.7H192.8c-11.6 0-21-9.5-21-21v-99.4c0-11.6 9.5-21 21-21h161.1c11.6 0 21 9.5 21 21v99.4c0.1 11.6-9.4 21-21 21z" fill="#F5DB6F" /><path d="M353.9 512.3H192.8c-11.6 0-21-9.5-21-21v-56.4c0-11.6 9.5-21 21-21h161.1c11.6 0 21 9.5 21 21v56.4c0.1 11.6-9.4 21-21 21z" fill="#2FAACD" /><path d="M171.8 408.8H375v38H171.8z" fill="#2FAACD" /><path d="M592 511.7H430.9c-11.6 0-21-9.5-21-21v-99.4c0-11.6 9.5-21 21-21H592c11.6 0 21 9.5 21 21v99.4c0 11.6-9.4 21-21 21z" fill="#F5DB6F" /><path d="M592 512.3H430.9c-11.6 0-21-9.5-21-21v-56.4c0-11.6 9.5-21 21-21H592c11.6 0 21 9.5 21 21v56.4c0 11.6-9.4 21-21 21z" fill="#2FAACD" /><path d="M409.8 408.8H613v38H409.8z" fill="#2FAACD" /><path d="M827.1 511.7H665.9c-11.6 0-21-9.5-21-21v-99.4c0-11.6 9.5-21 21-21H827c11.6 0 21 9.5 21 21v99.4c0.1 11.6-9.4 21-20.9 21z" fill="#F5DB6F" /><path d="M827.1 512.3H665.9c-11.6 0-21-9.5-21-21v-56.4c0-11.6 9.5-21 21-21H827c11.6 0 21 9.5 21 21v56.4c0.1 11.6-9.4 21-20.9 21z" fill="#2FAACD" /><path d="M644.9 408.8h203.2v38H644.9z" fill="#2FAACD" /><path d="M851.3 595.8H174.8c-7.4 0-13.4-6-13.4-13.4s6-13.4 13.4-13.4h676.4c7.4 0 13.4 6 13.4 13.4 0.1 7.4-6 13.4-13.3 13.4z" fill="#183351" /><path d="M931.5 340.5v-19.2c0-33-19.3-60-42.9-60H133.5c-23.6 0-42.9 27-42.9 60v19.2h840.9z" fill="#E5E5E5" /><path d="M876.5 293.2H139.2c-5 0-9.1-4.1-9.1-9.1s4.1-9.1 9.1-9.1h737.3c5 0 9.1 4.1 9.1 9.1s-4.1 9.1-9.1 9.1z" fill="#FFFFFF" /><path d="M352.4 496.4c-4.3 0-7.9-3.5-7.9-7.9v-60.7c0-4.3 3.5-7.9 7.9-7.9 4.3 0 7.9 3.5 7.9 7.9v60.7c0 4.4-3.5 7.9-7.9 7.9zM591.9 496.4c-4.3 0-7.9-3.5-7.9-7.9v-60.7c0-4.3 3.5-7.9 7.9-7.9 4.3 0 7.9 3.5 7.9 7.9v60.7c-0.1 4.4-3.6 7.9-7.9 7.9zM829 496.4c-4.3 0-7.9-3.5-7.9-7.9v-60.7c0-4.3 3.5-7.9 7.9-7.9 4.3 0 7.9 3.5 7.9 7.9v60.7c0 4.4-3.6 7.9-7.9 7.9z" fill="#EEF4F5" /><path d="M229.9 687.1m-75.5 0a75.5 75.5 0 1 0 151 0 75.5 75.5 0 1 0-151 0Z" fill="#4A4D4A" /><path d="M229.9 687.1m-33.6 0a33.6 33.6 0 1 0 67.2 0 33.6 33.6 0 1 0-67.2 0Z" fill="#E5E5E5" /><path d="M165.2 681c20.2-36.5 66.2-49.7 102.7-29.5 19 10.5 31.6 28 36.6 47.5 4.9-30.5-9.4-62.2-38-78.1-36.5-20.2-82.4-7-102.7 29.5-9.7 17.5-11.7 37.2-7.1 55.2 1.3-8.5 4.1-16.8 8.5-24.6z" fill="#383838" /><path d="M380.9 687.1m-75.5 0a75.5 75.5 0 1 0 151 0 75.5 75.5 0 1 0-151 0Z" fill="#4A4D4A" /><path d="M380.9 687.1m-33.6 0a33.6 33.6 0 1 0 67.2 0 33.6 33.6 0 1 0-67.2 0Z" fill="#E5E5E5" /><path d="M316.2 681c20.2-36.5 66.2-49.7 102.7-29.5 19 10.5 31.6 28 36.6 47.5 4.9-30.5-9.4-62.2-38-78.1-36.5-20.2-82.4-7-102.7 29.5-9.7 17.5-11.7 37.2-7.1 55.2 1.4-8.5 4.2-16.8 8.5-24.6z" fill="#383838" /><path d="M648 687.1m-75.5 0a75.5 75.5 0 1 0 151 0 75.5 75.5 0 1 0-151 0Z" fill="#4A4D4A" /><path d="M648 687.1m-33.6 0a33.6 33.6 0 1 0 67.2 0 33.6 33.6 0 1 0-67.2 0Z" fill="#E5E5E5" /><path d="M583.4 681c20.2-36.5 66.2-49.7 102.7-29.5 19 10.5 31.6 28 36.6 47.5 4.9-30.5-9.4-62.2-38-78.1-36.5-20.2-82.4-7-102.7 29.5-9.7 17.5-11.7 37.2-7.1 55.2 1.3-8.5 4.1-16.8 8.5-24.6z" fill="#383838" /><path d="M799.1 687.1m-75.5 0a75.5 75.5 0 1 0 151 0 75.5 75.5 0 1 0-151 0Z" fill="#4A4D4A" /><path d="M799.1 687.1m-33.6 0a33.6 33.6 0 1 0 67.2 0 33.6 33.6 0 1 0-67.2 0Z" fill="#E5E5E5" /><path d="M734.4 681c20.2-36.5 66.2-49.7 102.7-29.5 19 10.5 31.6 28 36.6 47.5 4.9-30.5-9.4-62.2-38-78.1-36.5-20.2-82.4-7-102.7 29.5-9.7 17.5-11.7 37.2-7.1 55.2 1.3-8.5 4.1-16.8 8.5-24.6z" fill="#383838" /></svg>